<svg xmlns="http://www.w3.org/2000/svg" width="40" height="40" viewBox="0 0 40 40">
    <path fill="#D1A976" fill-rule="evenodd" d="M4.432 9.059l14.32 11.437a2 2 0 0 0 2.496 0l14.32-11.437A1.793 1.793 0 0 0 35.111 9H4.89c-.158 0-.31.02-.457.059zm-1.38 1.47c-.034.15-.052.309-.052.471v18c0 1.105.846 2 1.889 2H35.11C36.154 31 37 30.105 37 29V11c0-.162-.018-.32-.053-.472L21.245 23.011a2 2 0 0 1-2.49 0L3.053 10.528zM4.8 7h30.4c2.099 0 3.8 1.79 3.8 4v18c0 2.21-1.701 4-3.8 4H4.8C2.701 33 1 31.21 1 29V11c0-2.21 1.701-4 3.8-4z"/>
</svg>