<svg xmlns="http://www.w3.org/2000/svg" width="40" height="40" viewBox="0 0 40 40">
    <g fill="#D1A976" fill-rule="evenodd">
        <path d="M21 32.965V38h5.125c.483 0 .875.448.875 1s-.392 1-.875 1h-12.25c-.483 0-.875-.448-.875-1s.392-1 .875-1H19v-5.035C11.735 32.452 6 26.395 6 19v-4a1 1 0 0 1 2 0v4h24v-4a1 1 0 0 1 2 0v4c0 7.396-5.735 13.452-13 13.965zM8 19c0 6.627 5.373 12 12 12s12-5.373 12-12H8z"/>
        <path d="M20 2c-3.866 0-7 3.419-7 7.636v8.728C13 22.58 16.134 26 20 26s7-3.419 7-7.636V9.636C27 5.42 23.866 2 20 2zm0-2c4.97 0 9 4.34 9 9.692v8.616C29 23.66 24.97 28 20 28s-9-4.34-9-9.692V9.692C11 4.34 15.03 0 20 0z"/>
    </g>
</svg>