<svg xmlns="http://www.w3.org/2000/svg" width="40" height="40" viewBox="0 0 40 40">
    <path fill="#D1A976" fill-rule="evenodd" d="M20.5 26c2 0 2-3 0-3s-2 3 0 3zM16 15.54c0-2.327 1.972-3.54 4-3.54 1.972 0 4 1.213 4 3.54v.302c0 1.315-.767 2.529-2.028 3.135l-.767.354v.556c0 .607-.548 1.113-1.205 1.113s-1.205-.506-1.205-1.113v-.91c0-.606.328-1.162.93-1.466l1.097-.556c.493-.253.767-.658.767-1.163v-.253c0-1.213-1.425-1.264-1.59-1.264-.163 0-1.588.051-1.588 1.264 0 .607-.548 1.112-1.206 1.112-.657 0-1.205-.505-1.205-1.112zm1.16 17.28c.93.12 1.88.18 2.84.18 9.93 0 18-6.5 18-14.5S29.93 4 20 4 2 10.5 2 18.5c0 2.54.79 4.95 2.32 7.11.48.69 1.03 1.34 1.66 1.97l-.44 2.32-.858 4.55a1 1 0 0 0 1.388 1.1l5.08-2.25 2.67-1.18c1.08.32 2.2.55 3.34.7zM0 18.5C0 9.39 8.95 2 20 2s20 7.39 20 16.5S31.05 35 20 35c-2.1 0-4.12-.27-6.02-.77l-8.831 3.91a2 2 0 0 1-2.776-2.199L3.83 28.2C1.42 25.48 0 22.13 0 18.5z"/>
</svg>